<svg xmlns="http://www.w3.org/2000/svg" width="860" height="520" viewBox="0 0 860 520" font-family="system-ui, -apple-system, Segoe UI, Roboto, Helvetica, Arial, sans-serif">
<rect width="860" height="520" fill="#ffffff"/>
<text x="430" y="28" text-anchor="middle" font-size="17" font-weight="600" fill="#1a202c">Klifzoeker: waar breekt het?</text>
<rect x="80" y="60" width="580" height="390" fill="#f7fafc" stroke="#e2e8f0"/>
<line x1="80" y1="450.0" x2="660" y2="450.0" stroke="#e2e8f0"/>
<text x="72" y="454.0" text-anchor="end" font-size="11" fill="#4a5568">0</text>
<line x1="80" y1="350.9" x2="660" y2="350.9" stroke="#e2e8f0"/>
<text x="72" y="354.9" text-anchor="end" font-size="11" fill="#4a5568">20.0</text>
<line x1="80" y1="251.7" x2="660" y2="251.7" stroke="#e2e8f0"/>
<text x="72" y="255.7" text-anchor="end" font-size="11" fill="#4a5568">40.0</text>
<line x1="80" y1="152.6" x2="660" y2="152.6" stroke="#e2e8f0"/>
<text x="72" y="156.6" text-anchor="end" font-size="11" fill="#4a5568">60.0</text>
<line x1="80" y1="53.4" x2="660" y2="53.4" stroke="#e2e8f0"/>
<text x="72" y="57.4" text-anchor="end" font-size="11" fill="#4a5568">80.0</text>
<line x1="-2.9" y1="60" x2="-2.9" y2="450" stroke="#edf2f7"/>
<text x="-2.9" y="468" text-anchor="middle" font-size="11" fill="#4a5568">0</text>
<line x1="162.9" y1="60" x2="162.9" y2="450" stroke="#edf2f7"/>
<text x="162.9" y="468" text-anchor="middle" font-size="11" fill="#4a5568">10.0</text>
<line x1="328.6" y1="60" x2="328.6" y2="450" stroke="#edf2f7"/>
<text x="328.6" y="468" text-anchor="middle" font-size="11" fill="#4a5568">20.0</text>
<line x1="494.3" y1="60" x2="494.3" y2="450" stroke="#edf2f7"/>
<text x="494.3" y="468" text-anchor="middle" font-size="11" fill="#4a5568">30.0</text>
<line x1="660.0" y1="60" x2="660.0" y2="450" stroke="#edf2f7"/>
<text x="660.0" y="468" text-anchor="middle" font-size="11" fill="#4a5568">40.0</text>
<line x1="80" y1="350.9" x2="660" y2="350.9" stroke="#38a169" stroke-dasharray="6 4"/>
<text x="86" y="345.9" font-size="11" fill="#38a169">TTFT-grens groen</text>
<line x1="80" y1="226.9" x2="660" y2="226.9" stroke="#c53030" stroke-dasharray="6 4"/>
<text x="86" y="221.9" font-size="11" fill="#c53030">TTFT-grens rood</text>
<path d="M80.0,444.5 L96.6,448.8 L113.1,448.7 L129.7,448.4 L146.3,448.3 L162.9,448.5 L179.4,448.4 L196.0,448.6 L212.6,448.7 L229.1,448.1 L245.7,448.7 L262.3,448.7 L278.9,448.5 L295.4,448.6 L312.0,448.3 L328.6,448.4 L345.1,448.4 L361.7,448.5 L378.3,448.4 L394.9,448.0 L411.4,447.8 L428.0,448.3 L444.6,448.4 L461.1,448.4 L477.7,448.0 L494.3,448.2 L510.9,448.3 L527.4,448.4 L544.0,448.4 L560.6,448.1 L577.1,448.5 L593.7,448.4 L610.3,448.5 L626.9,447.7 L643.4,448.3 L660.0,448.3" fill="none" stroke="#2b6cb0" stroke-width="2.2"/>
<circle cx="80.0" cy="444.5" r="3.4" fill="#2b6cb0"/>
<circle cx="96.6" cy="448.8" r="3.4" fill="#2b6cb0"/>
<circle cx="113.1" cy="448.7" r="3.4" fill="#2b6cb0"/>
<circle cx="129.7" cy="448.4" r="3.4" fill="#2b6cb0"/>
<circle cx="146.3" cy="448.3" r="3.4" fill="#2b6cb0"/>
<circle cx="162.9" cy="448.5" r="3.4" fill="#2b6cb0"/>
<circle cx="179.4" cy="448.4" r="3.4" fill="#2b6cb0"/>
<circle cx="196.0" cy="448.6" r="3.4" fill="#2b6cb0"/>
<circle cx="212.6" cy="448.7" r="3.4" fill="#2b6cb0"/>
<circle cx="229.1" cy="448.1" r="3.4" fill="#2b6cb0"/>
<circle cx="245.7" cy="448.7" r="3.4" fill="#2b6cb0"/>
<circle cx="262.3" cy="448.7" r="3.4" fill="#2b6cb0"/>
<circle cx="278.9" cy="448.5" r="3.4" fill="#2b6cb0"/>
<circle cx="295.4" cy="448.6" r="3.4" fill="#2b6cb0"/>
<circle cx="312.0" cy="448.3" r="3.4" fill="#2b6cb0"/>
<circle cx="328.6" cy="448.4" r="3.4" fill="#2b6cb0"/>
<circle cx="345.1" cy="448.4" r="3.4" fill="#2b6cb0"/>
<circle cx="361.7" cy="448.5" r="3.4" fill="#2b6cb0"/>
<circle cx="378.3" cy="448.4" r="3.4" fill="#2b6cb0"/>
<circle cx="394.9" cy="448.0" r="3.4" fill="#2b6cb0"/>
<circle cx="411.4" cy="447.8" r="3.4" fill="#2b6cb0"/>
<circle cx="428.0" cy="448.3" r="3.4" fill="#2b6cb0"/>
<circle cx="444.6" cy="448.4" r="3.4" fill="#2b6cb0"/>
<circle cx="461.1" cy="448.4" r="3.4" fill="#2b6cb0"/>
<circle cx="477.7" cy="448.0" r="3.4" fill="#2b6cb0"/>
<circle cx="494.3" cy="448.2" r="3.4" fill="#2b6cb0"/>
<circle cx="510.9" cy="448.3" r="3.4" fill="#2b6cb0"/>
<circle cx="527.4" cy="448.4" r="3.4" fill="#2b6cb0"/>
<circle cx="544.0" cy="448.4" r="3.4" fill="#2b6cb0"/>
<circle cx="560.6" cy="448.1" r="3.4" fill="#2b6cb0"/>
<circle cx="577.1" cy="448.5" r="3.4" fill="#2b6cb0"/>
<circle cx="593.7" cy="448.4" r="3.4" fill="#2b6cb0"/>
<circle cx="610.3" cy="448.5" r="3.4" fill="#2b6cb0"/>
<circle cx="626.9" cy="447.7" r="3.4" fill="#2b6cb0"/>
<circle cx="643.4" cy="448.3" r="3.4" fill="#2b6cb0"/>
<circle cx="660.0" cy="448.3" r="3.4" fill="#2b6cb0"/>
<line x1="676" y1="74" x2="700" y2="74" stroke="#2b6cb0" stroke-width="2.2"/>
<text x="706" y="78" font-size="12" fill="#2d3748">p90 TTFT</text>
<path d="M80.0,352.0 L96.6,338.6 L113.1,306.2 L129.7,291.5 L146.3,317.2 L162.9,251.0 L179.4,235.3 L196.0,289.2 L212.6,282.8 L229.1,281.0 L245.7,336.1 L262.3,290.1 L278.9,292.6 L295.4,267.4 L312.0,212.3 L328.6,268.5 L345.1,215.6 L361.7,215.6 L378.3,277.5 L394.9,223.1 L411.4,101.8 L428.0,255.6 L444.6,269.4 L461.1,173.2 L477.7,175.6 L494.3,220.0 L510.9,207.2 L527.4,276.9 L544.0,295.8 L560.6,202.1 L577.1,180.5 L593.7,159.1 L610.3,163.7 L626.9,216.1 L643.4,220.9 L660.0,153.0" fill="none" stroke="#c05621" stroke-width="2.2"/>
<circle cx="80.0" cy="352.0" r="3.4" fill="#c05621"/>
<circle cx="96.6" cy="338.6" r="3.4" fill="#c05621"/>
<circle cx="113.1" cy="306.2" r="3.4" fill="#c05621"/>
<circle cx="129.7" cy="291.5" r="3.4" fill="#c05621"/>
<circle cx="146.3" cy="317.2" r="3.4" fill="#c05621"/>
<circle cx="162.9" cy="251.0" r="3.4" fill="#c05621"/>
<circle cx="179.4" cy="235.3" r="3.4" fill="#c05621"/>
<circle cx="196.0" cy="289.2" r="3.4" fill="#c05621"/>
<circle cx="212.6" cy="282.8" r="3.4" fill="#c05621"/>
<circle cx="229.1" cy="281.0" r="3.4" fill="#c05621"/>
<circle cx="245.7" cy="336.1" r="3.4" fill="#c05621"/>
<circle cx="262.3" cy="290.1" r="3.4" fill="#c05621"/>
<circle cx="278.9" cy="292.6" r="3.4" fill="#c05621"/>
<circle cx="295.4" cy="267.4" r="3.4" fill="#c05621"/>
<circle cx="312.0" cy="212.3" r="3.4" fill="#c05621"/>
<circle cx="328.6" cy="268.5" r="3.4" fill="#c05621"/>
<circle cx="345.1" cy="215.6" r="3.4" fill="#c05621"/>
<circle cx="361.7" cy="215.6" r="3.4" fill="#c05621"/>
<circle cx="378.3" cy="277.5" r="3.4" fill="#c05621"/>
<circle cx="394.9" cy="223.1" r="3.4" fill="#c05621"/>
<circle cx="411.4" cy="101.8" r="3.4" fill="#c05621"/>
<circle cx="428.0" cy="255.6" r="3.4" fill="#c05621"/>
<circle cx="444.6" cy="269.4" r="3.4" fill="#c05621"/>
<circle cx="461.1" cy="173.2" r="3.4" fill="#c05621"/>
<circle cx="477.7" cy="175.6" r="3.4" fill="#c05621"/>
<circle cx="494.3" cy="220.0" r="3.4" fill="#c05621"/>
<circle cx="510.9" cy="207.2" r="3.4" fill="#c05621"/>
<circle cx="527.4" cy="276.9" r="3.4" fill="#c05621"/>
<circle cx="544.0" cy="295.8" r="3.4" fill="#c05621"/>
<circle cx="560.6" cy="202.1" r="3.4" fill="#c05621"/>
<circle cx="577.1" cy="180.5" r="3.4" fill="#c05621"/>
<circle cx="593.7" cy="159.1" r="3.4" fill="#c05621"/>
<circle cx="610.3" cy="163.7" r="3.4" fill="#c05621"/>
<circle cx="626.9" cy="216.1" r="3.4" fill="#c05621"/>
<circle cx="643.4" cy="220.9" r="3.4" fill="#c05621"/>
<circle cx="660.0" cy="153.0" r="3.4" fill="#c05621"/>
<line x1="676" y1="94" x2="700" y2="94" stroke="#c05621" stroke-width="2.2"/>
<text x="706" y="98" font-size="12" fill="#2d3748">p90 doorlooptijd instructie</text>
<text x="370" y="502" text-anchor="middle" font-size="12" fill="#2d3748">gelijktijdige studenten</text>
<text x="18" y="255" font-size="12" fill="#2d3748" transform="rotate(-90 18 255)" text-anchor="middle">seconden</text>
</svg>
