<svg xmlns="http://www.w3.org/2000/svg" width="860" height="480" viewBox="0 0 860 480" font-family="system-ui, -apple-system, Segoe UI, Roboto, Helvetica, Arial, sans-serif">
<rect width="860" height="480" fill="#ffffff"/>
<text x="430" y="28" text-anchor="middle" font-size="17" font-weight="600" fill="#1a202c">Preempties per scenario</text>
<rect x="80" y="60" width="740" height="280" fill="#f7fafc" stroke="#e2e8f0"/>
<line x1="80" y1="340.0" x2="820" y2="340.0" stroke="#e2e8f0"/>
<text x="72" y="344.0" text-anchor="end" font-size="11" fill="#4a5568">0</text>
<line x1="80" y1="279.1" x2="820" y2="279.1" stroke="#e2e8f0"/>
<text x="72" y="283.1" text-anchor="end" font-size="11" fill="#4a5568">0.25</text>
<line x1="80" y1="218.3" x2="820" y2="218.3" stroke="#e2e8f0"/>
<text x="72" y="222.3" text-anchor="end" font-size="11" fill="#4a5568">0.5</text>
<line x1="80" y1="157.4" x2="820" y2="157.4" stroke="#e2e8f0"/>
<text x="72" y="161.4" text-anchor="end" font-size="11" fill="#4a5568">0.75</text>
<line x1="80" y1="96.5" x2="820" y2="96.5" stroke="#e2e8f0"/>
<text x="72" y="100.5" text-anchor="end" font-size="11" fill="#4a5568">1</text>
<line x1="80" y1="35.7" x2="820" y2="35.7" stroke="#e2e8f0"/>
<text x="72" y="39.7" text-anchor="end" font-size="11" fill="#4a5568">1.25</text>
<rect x="213.2" y="340.0" width="473.6" height="0.0" fill="#c53030" rx="3"/>
<text x="450.0" y="334.0" text-anchor="middle" font-size="11" fill="#2d3748">0</text>
<text x="450.0" y="356.0" text-anchor="end" font-size="11" fill="#2d3748" transform="rotate(-35 450.0 356.0)">engine_seqs_64</text>
<text x="18" y="200" font-size="12" fill="#2d3748" transform="rotate(-90 18 200)" text-anchor="middle">preempties tijdens de meting</text>
</svg>
